<?xml version="1.0" encoding="UTF-8"?>
<svg width="24" height="24" viewBox="0 0 24 24" fill="none" xmlns="http://www.w3.org/2000/svg">
  <path d="M22 4.01C21.0883 4.45 20.1013 4.75333 19.07 4.89C20.1307 4.26533 20.9313 3.27533 21.31 2.11C20.3233 2.68333 19.2383 3.08667 18.09 3.30333C17.1643 2.31333 15.8693 1.70667 14.42 1.70667C11.6667 1.70667 9.42667 3.94667 9.42667 6.70667C9.42667 7.13667 9.47667 7.55333 9.57667 7.95333C5.43667 7.73667 1.77667 5.75333 -0.323333 2.78333C-0.783333 3.58333 -1.04333 4.51 -1.04333 5.49667C-1.04333 7.37 -0.123333 9.03667 1.32333 10.0033C0.483333 9.97667 -0.316667 9.74333 -1.02333 9.35333V9.42C-1.02333 11.8467 0.708333 13.8733 3.00333 14.3733C3.52333 14.4933 4.06333 14.5533 4.62333 14.5533C5.03333 14.5533 5.43667 14.5167 5.82333 14.4433C7.27667 16.42 9.47667 17.7533 11.98 17.7967C9.93667 19.02 7.42333 19.7533 4.72333 19.7533C4.29333 19.7533 3.87 19.7267 3.45 19.6733C5.98 20.9867 8.93667 21.7467 12.0933 21.7467C19.4133 21.7467 23.4467 15.6467 23.4467 10.3733C23.4467 10.1467 23.4467 9.92 23.4333 9.69333C24.4333 8.97667 25.3067 8.08333 26 7.05333L22 4.01Z" fill="#1b4332"/>
</svg>